<svg width="264" height="59" viewBox="0 0 264 59" fill="none" xmlns="http://www.w3.org/2000/svg">
<g clip-path="url(#clip0_631_1893)">
<path d="M0 41.3233H4.94122V53.9778H6.88607V41.3233H11.8304V39.502H0V41.3233Z" fill="#4D4D4D"/>
<path d="M25.5229 39.5021V47.7736C25.5229 51.9938 23.2555 54.2268 19.5271 54.2268C15.7987 54.2268 13.5312 51.9938 13.5312 47.7736V40.1625L15.5567 39.5819V47.7705C15.5567 50.9956 17.0146 52.4023 19.5271 52.4023C22.0396 52.4023 23.5781 50.9126 23.5781 47.7705V40.1594L25.5229 39.499V39.5021Z" fill="#4D4D4D"/>
<path d="M49.6648 39.502L44.9655 53.9778H42.7787L39.2954 43.5563L38.889 42.3984L38.5665 43.5563L34.9993 53.9778H32.8932L28.1133 39.502H30.2194L34.0285 51.2504L37.9182 39.502H39.9437L43.8334 51.3333L47.7231 39.502H49.6648Z" fill="#4D4D4D"/>
<path d="M57.931 39.502L55.6636 40.1623H55.5829L49.4258 53.9778H51.5319L53.0704 50.3381H60.6048L62.1433 53.9778H64.2494L57.931 39.502ZM53.7994 48.6826L55.8249 44.0508L56.8795 41.5691L57.9341 43.9679L59.9596 48.6826H53.8025H53.7994Z" fill="#4D4D4D"/>
<path d="M68.3849 39.502V53.9778H66.3594V40.0825L68.3849 39.502Z" fill="#4D4D4D"/>
<path d="M86.2096 54.1434C85.4806 54.9697 84.5904 55.3843 83.6164 55.3843C82.7262 55.3843 81.8329 54.9697 80.862 53.8947C84.1841 53.1514 86.4515 50.3379 86.4515 46.6982C86.4515 42.3981 83.2101 39.2529 78.9172 39.2529C74.6242 39.2529 71.3828 42.395 71.3828 46.6982C71.3828 50.7525 74.3792 53.8947 78.4333 54.0605C80.4588 56.1276 81.836 56.9569 83.6195 56.9569C85.0774 56.9569 86.2933 56.3764 87.1835 55.2185L86.2127 54.1434H86.2096ZM73.4083 46.7811C73.4083 43.5561 75.7595 41.2402 78.9172 41.2402C82.0748 41.2402 84.426 43.639 84.426 46.7811C84.426 49.9232 82.0748 52.3221 78.9172 52.3221C75.7595 52.3221 73.4083 49.9232 73.4083 46.7811Z" fill="#4D4D4D"/>
<path d="M115.868 41.1572C117.406 41.1572 118.783 41.7377 119.838 42.8956L121.134 41.5718C119.838 40.0822 117.893 39.3389 115.706 39.3389C111.413 39.3389 108.172 42.481 108.172 46.7841C108.172 51.0873 111.413 54.2294 115.706 54.2294C117.893 54.2294 119.838 53.4032 121.134 51.9135L119.838 50.5897C118.703 51.7476 117.406 52.3281 115.868 52.3281C112.626 52.3281 110.278 49.9293 110.278 46.7872C110.278 43.5621 112.71 41.1633 115.868 41.1633V41.1572Z" fill="#4D4D4D"/>
<path d="M144.383 39.502H138.387V53.9778H144.383C148.921 53.9778 152.081 50.9985 152.081 46.6984C152.081 42.3984 149.001 39.502 144.383 39.502ZM144.302 52.1595H140.412V41.2404H144.221C147.705 41.2404 149.975 43.4734 149.975 46.7015C150.056 50.0095 147.788 52.1626 144.302 52.1626V52.1595Z" fill="#4D4D4D"/>
<path d="M157.104 47.5277H164.235V45.7063H157.104V41.3233H165.125V39.502H155.078V53.9778H165.37V52.1595H157.104V47.5277Z" fill="#4D4D4D"/>
<path d="M182.063 39.502L176.228 49.6778L170.232 39.502H168.613V53.9778H170.558V43.4734L175.661 52.2424H176.635L181.737 43.3904V53.9778H183.682V39.502H182.063Z" fill="#4D4D4D"/>
<path d="M192.432 47.1131L187.813 39.502H185.707L191.3 48.9345V53.9778H193.325V49.0174L198.995 39.502H196.97L192.432 47.1131Z" fill="#4D4D4D"/>
<path d="M101.119 39.502L98.8511 40.1623H98.7704L92.6133 53.9778H94.7194L96.2579 50.3381H103.792L105.331 53.9778H107.437L101.119 39.502ZM97.0675 48.6826L99.093 44.0508L100.148 41.5691L101.202 43.9679L103.228 48.6826H97.0706H97.0675Z" fill="#4D4D4D"/>
<path d="M129.962 39.502L127.695 40.1623H127.614L121.457 53.9778H123.563L125.102 50.3381H132.636L134.175 53.9778H136.281L129.962 39.502ZM125.911 48.6826L127.937 44.0508L128.991 41.5691L130.046 43.9679L132.071 48.6826H125.914H125.911Z" fill="#4D4D4D"/>
<path d="M193.08 26.847C193.161 26.9299 191.461 28.6684 191.461 28.6684H160.266V11.0473L162.372 10.4668V26.7641H190.648C190.567 26.5982 190.567 26.5153 190.487 26.3494C190.08 25.6061 189.597 24.8597 188.948 24.1164C187.813 22.9585 186.274 22.378 184.655 22.378H168.693L167.722 20.4767C167.722 20.3938 168.129 20.145 168.209 20.0621C168.371 19.8962 168.532 19.8133 168.696 19.6474C169.019 19.3987 169.345 19.1499 169.667 18.9041C170.316 18.4066 170.964 17.9121 171.612 17.4145C172.909 16.5053 174.286 15.759 175.824 15.1815C175.986 15.0986 176.147 15.0986 176.231 15.0157C177.527 14.601 178.985 14.4351 180.282 14.8498C180.362 14.8498 180.604 14.9327 180.688 14.9327L179.553 16.7541C176.231 16.0108 170.396 20.3109 170.396 20.3109H185.142C186.358 20.3109 187.574 20.6426 188.626 21.303C189.68 21.9633 190.812 22.7926 191.541 23.7847C191.595 23.84 191.649 23.8953 191.703 23.9506C192.19 24.8597 192.674 25.8518 193.08 26.847Z" fill="#4D4D4D"/>
<path d="M34.1095 31.4788C33.7869 31.8105 33.7031 32.1391 33.7031 32.5538C33.7031 32.9684 33.8644 33.2971 34.1095 33.6288C34.4321 33.8776 34.7577 34.0434 35.1641 34.0434C35.5704 34.0434 35.893 33.8776 36.2187 33.6288C36.4607 33.38 36.625 32.9684 36.625 32.5538C36.625 32.1391 36.4638 31.7275 36.2187 31.4788C35.9768 31.147 35.5704 31.0641 35.1641 31.0641C34.6771 30.9812 34.3545 31.147 34.1095 31.4788Z" fill="#4D4D4D"/>
<path d="M32.6524 32.5541C32.6524 32.1395 32.4911 31.7279 32.2461 31.4791C32.0041 31.1474 31.5978 31.0645 31.1914 31.0645C30.7851 31.0645 30.4625 31.2303 30.1368 31.4791C29.8142 31.8108 29.7305 32.1395 29.7305 32.5541C29.7305 32.9688 29.8918 33.2974 30.1368 33.6291C30.4594 33.8779 30.7851 34.0438 31.1914 34.0438C31.5978 34.0438 31.9204 33.8779 32.2461 33.6291C32.488 33.2974 32.6524 32.9688 32.6524 32.5541Z" fill="#4D4D4D"/>
<path d="M34.5165 17.5802V26.681H17.8255C17.8255 24.8596 17.7449 23.2072 17.5836 21.6346C17.4223 20.062 17.261 18.6552 17.016 17.3345C15.3131 17.5833 13.9358 17.915 12.723 18.4095C11.5878 18.9071 10.6169 19.4016 9.8073 19.9821C9.07837 20.5626 8.51074 21.223 8.18815 21.9663C7.86556 22.6266 7.70116 23.373 7.70116 24.1163C7.70116 25.6889 8.1075 26.8469 8.91708 27.5902C9.72666 28.3335 10.9426 28.6652 12.5617 28.6652H15.6418C15.5612 29.6573 15.3193 30.4866 14.9129 31.064C14.5066 31.6445 14.0227 32.0561 13.4551 32.3049C12.8874 32.5537 12.4004 32.8025 11.8359 32.8025C11.3489 32.8854 10.9457 32.8854 10.7006 32.8854H7.29792C6.082 32.8854 5.11113 32.6366 4.46285 32.225C3.73392 31.8104 3.24693 31.2329 2.84369 30.5695C2.44045 29.906 2.19541 29.2457 2.11476 28.5024C2.03411 27.7591 1.95347 27.0956 1.95347 26.5182C1.95347 25.6091 2.11476 24.617 2.44045 23.7047C2.76304 22.7126 3.08874 21.8833 3.57572 21.0571H2.03721C1.79527 21.3888 1.63087 21.7175 1.38893 22.1321C1.14699 22.5468 0.901944 22.9584 0.740649 23.5389C0.498706 24.0365 0.334309 24.6968 0.253662 25.3603C0.0923664 26.0206 0.0117188 26.9329 0.0117188 27.842C0.0117188 29 0.253662 30.075 0.660002 30.9012C1.06634 31.8104 1.63087 32.4738 2.27916 33.0512C2.92744 33.6318 3.65637 34.0433 4.5466 34.375C5.35617 34.6238 6.2495 34.7897 7.05908 34.7897H11.5971C12.8936 34.7897 13.9482 34.5409 14.7578 34.0464C15.5674 33.5488 16.2157 32.9714 16.7027 32.3079C17.1897 31.6476 17.5123 30.9841 17.6735 30.2408C17.8348 29.4975 17.9155 28.917 17.9961 28.5024H35.2547C35.2547 28.5024 36.4706 27.1786 36.7932 26.8469V16.8369L34.5258 17.5802H34.5165ZM12.1523 26.681C11.6653 26.681 11.3427 26.5981 11.017 26.4322C10.7751 26.2663 10.53 26.0176 10.2881 25.7718C10.1268 25.5231 9.9655 25.1913 9.88175 24.9456C9.8011 24.6139 9.8011 24.3651 9.8011 24.1194C9.8011 23.1273 10.2881 22.298 11.0977 21.5547C11.9072 20.8943 13.2845 20.3138 15.1487 19.8162C15.2293 20.2309 15.2293 20.7254 15.31 21.223C15.3906 21.7206 15.3906 22.2151 15.3906 22.7956C15.3906 23.2932 15.4712 23.7877 15.4712 24.2852V26.6841H12.1492L12.1523 26.681Z" fill="#4D4D4D"/>
<path d="M86.2886 26.681C86.2079 25.2742 86.0466 23.6218 86.0466 23.2901C85.8853 22.0492 85.6403 20.6424 84.75 19.6504C83.8598 18.5753 82.1569 18.2436 80.7797 18.0778C76.9706 17.6631 73.5679 19.2357 70.5716 21.6345C69.8426 22.215 69.1137 22.8754 68.3848 23.5358V10.3008C67.7365 10.5496 67.0076 10.7984 66.2786 10.9611V26.595H48.8588C48.8588 24.8565 48.7781 23.1211 48.6168 21.6315C48.4555 20.0589 48.2942 18.6521 48.0492 17.3314C46.3463 17.5802 44.9691 17.9119 43.7562 18.4064C42.621 18.904 41.6501 19.3985 40.8405 19.979C40.1116 20.5595 39.544 21.2199 39.2214 21.9632C38.8988 22.6235 38.7344 23.3699 38.7344 24.1132C38.7344 25.6858 39.1407 26.8438 39.9503 27.5871C40.7599 28.3304 41.9758 28.6621 43.5949 28.6621H46.6751C46.5944 29.1597 46.5138 29.6542 46.3525 30.0688C46.1912 30.4835 45.9461 30.8121 45.7042 31.1438C45.4623 31.4755 45.2172 31.7243 44.8946 31.8871C44.572 32.1359 44.327 32.3018 44.0044 32.3847C43.3561 32.7164 42.5465 32.8823 41.7369 32.9652L42.3046 34.8665C43.6011 34.7835 44.6558 34.4518 45.4654 33.9573C46.2749 33.4597 46.9232 32.8823 47.4102 32.2188C47.8972 31.5585 48.2198 30.895 48.4648 30.2347C48.7068 29.5743 48.7874 28.9938 48.7874 28.5791H84.6818C84.6818 28.5791 85.8977 27.2553 86.2203 26.9236C86.3816 26.8407 86.301 26.7578 86.301 26.6748L86.2886 26.681ZM43.2662 26.681C42.7792 26.681 42.4566 26.598 42.1309 26.4322C41.8083 26.2663 41.5632 26.0175 41.4019 25.7718C41.2407 25.523 41.0794 25.1913 40.9956 24.9456C40.915 24.6139 40.915 24.3651 40.915 24.1194C40.915 23.1273 41.4019 22.298 42.2115 21.5547C43.0211 20.8943 44.3983 20.3138 46.2625 19.8162C46.3432 20.2309 46.3432 20.7254 46.4238 21.223C46.5045 21.7205 46.5045 22.215 46.5045 22.7956C46.5045 23.2931 46.5851 23.7876 46.5851 24.2852V26.684H43.263L43.2662 26.681ZM84.2631 26.681H68.4623C68.6236 26.681 68.9493 26.1834 69.03 26.0206C69.2719 25.6889 69.5976 25.4401 69.8395 25.1114C72.594 22.215 75.916 19.8162 80.0477 19.9821C81.0185 20.065 81.9925 20.3138 82.7215 20.8912C83.3697 21.3888 83.7761 22.1321 83.9374 22.9583C84.26 24.1163 84.1793 25.523 84.26 26.681H84.2631Z" fill="#4D4D4D"/>
<path d="M141.467 17.5804V26.6811H133.446V26.2665C133.446 26.0177 133.446 25.6061 133.365 25.0256C133.284 24.4451 133.204 23.8677 133.042 23.2872C132.881 22.6268 132.72 21.9634 132.475 21.303C132.233 20.6426 131.988 19.9792 131.746 19.4816C131.423 18.9011 131.097 18.4895 130.775 18.1578C130.369 17.8261 130.046 17.5773 129.559 17.5773C129.236 17.5773 128.83 17.8261 128.343 18.3206C127.856 18.8182 127.288 19.4785 126.64 20.3048C126.073 21.131 125.424 22.1261 124.776 23.2012C124.128 24.2762 123.56 25.5171 122.992 26.7579H116.59V16.9968L114.484 17.5773V26.6781H103.06V17.1657C101.276 17.3316 99.6573 17.6633 98.3607 18.0749C97.0642 18.4895 96.0096 18.984 95.1193 19.5645C94.3098 20.145 93.6615 20.8054 93.2551 21.4658C92.8488 22.1261 92.6875 22.8725 92.6875 23.6158C92.6875 25.1884 93.0938 26.4293 93.9034 27.2555C94.713 28.1647 96.0096 28.5793 97.7125 28.5793C98.4414 28.5793 99.0897 28.4964 99.496 28.4135C99.9024 28.2476 100.306 28.1647 100.467 27.9988C100.709 27.8329 100.873 27.5842 101.035 27.3384C101.115 27.5043 101.196 27.6702 101.276 27.7531C101.357 27.9189 101.518 28.0019 101.599 28.1677C101.76 28.3336 101.922 28.4995 102.086 28.5824H122.26C122.989 28.5824 123.638 28.4995 124.044 28.2507C124.45 28.0019 124.853 27.5903 125.179 26.8439C126.476 27.5043 127.611 28.0848 128.501 28.4995C129.391 28.9141 130.12 29.2428 130.688 29.4086C130.93 29.5745 131.175 29.5745 131.417 29.5745C131.659 29.5745 131.904 29.4915 132.065 29.4086C132.227 29.3257 132.472 28.994 132.714 28.4995H141.951C141.951 28.4995 143.167 27.1756 143.489 26.8439V16.834L141.464 17.5773L141.467 17.5804ZM101.118 26.6811H97.6349C97.3123 26.6811 97.0673 26.6811 96.7447 26.5982C96.4221 26.5153 96.1771 26.3494 95.9351 26.1836C95.6932 25.9348 95.5288 25.686 95.3675 25.2744C95.2062 24.8628 95.1255 24.3652 95.1255 23.7018C95.1255 23.2872 95.2062 22.8756 95.4481 22.4609C95.6901 22.0463 96.0158 21.7176 96.5027 21.303C96.9897 20.9713 97.5574 20.6426 98.367 20.3109C99.0959 19.9792 100.07 19.7304 101.121 19.5676V26.6811H101.118ZM130.124 26.847C129.637 26.6811 129.153 26.4323 128.666 26.2665C128.179 26.0177 127.695 25.7689 127.208 25.5232C126.721 25.2744 126.318 24.9427 125.911 24.697C125.992 24.5311 126.153 24.1994 126.479 23.7049C126.721 23.2073 127.046 22.7128 127.369 22.2152C127.692 21.7176 128.017 21.3061 128.424 20.8914C128.746 20.4768 129.072 20.3109 129.314 20.3109C129.556 20.3109 129.801 20.5597 130.043 20.9713C130.285 21.3859 130.449 21.9634 130.61 22.6268C130.772 23.2872 130.933 24.0335 131.017 24.8598C131.101 25.686 131.259 26.5153 131.259 27.3415C131.017 27.1756 130.611 27.0098 130.124 26.8439V26.847Z" fill="#4D4D4D"/>
<path d="M147.463 28.5825C147.705 28.6654 148.031 28.6654 148.353 28.6654H157.51V26.6812C157.51 25.5233 157.268 24.3653 156.862 23.2074C156.455 22.0494 155.891 21.0573 155.243 20.0652C154.594 19.0732 153.865 18.3268 153.056 17.5835C152.246 16.9231 151.437 16.4255 150.624 16.1768L149.976 18.4927C151.03 18.9902 151.92 19.5677 152.569 20.2311C153.217 20.9744 153.785 21.6378 154.107 22.4641C154.514 23.2074 154.756 23.9537 154.836 24.697C154.997 25.4403 154.998 26.0208 154.998 26.5983H148.515C148.192 26.5983 147.866 26.5983 147.624 26.5154C147.383 26.5154 147.137 26.4324 146.896 26.3495C146.654 26.2666 146.409 26.1836 146.247 26.1007L146.086 28.0849C146.247 28.1678 146.492 28.2507 146.654 28.3337C146.976 28.4995 147.221 28.4995 147.463 28.5825Z" fill="#4D4D4D"/>
<path d="M198.995 10.3842L197.211 10.8818C197.131 10.8818 196.969 10.7988 196.805 10.7988C196.644 10.7159 196.563 10.633 196.399 10.55C196.234 10.4671 196.157 10.3012 196.076 10.1354C195.995 9.96953 195.915 9.80367 195.915 9.63781C195.915 9.38902 195.995 9.22316 196.157 9.0573C196.318 8.89144 196.479 8.80851 196.724 8.72558C196.966 8.64265 197.131 8.64265 197.373 8.72558C197.614 8.72558 197.779 8.89144 198.021 8.97437L198.83 8.23107C198.669 7.98228 198.424 7.81642 198.101 7.73349C197.859 7.65056 197.534 7.56763 197.211 7.65056C196.889 7.65056 196.644 7.73349 196.321 7.89935C195.998 8.06521 195.753 8.23107 195.511 8.39693C195.269 8.64572 195.105 8.89451 194.944 9.14023C194.782 9.47195 194.702 9.8006 194.702 10.1323C194.702 10.3811 194.782 10.6299 194.944 10.9585C195.105 11.2903 195.35 11.4561 195.592 11.5391L194.215 11.9537V12.9458L198.753 11.5391V10.3811H198.995V10.3842Z" fill="#4D4D4D"/>
<path d="M197.942 28.666V13.0322L195.836 13.6127V28.666H197.942Z" fill="#4D4D4D"/>
<path d="M116.594 31.4788C116.271 31.8105 116.188 32.1391 116.188 32.5538C116.188 32.9684 116.349 33.2971 116.594 33.6288C116.916 33.8776 117.242 34.0434 117.648 34.0434C118.055 34.0434 118.377 33.8776 118.703 33.6288C118.945 33.38 119.109 32.9684 119.109 32.5538C119.109 32.1391 118.948 31.7275 118.703 31.4788C118.461 31.147 118.055 31.0641 117.648 31.0641C117.242 30.9812 116.92 31.147 116.594 31.4788Z" fill="#4D4D4D"/>
<path d="M115.215 32.5541C115.215 32.1395 115.054 31.7279 114.809 31.4791C114.567 31.1474 114.16 31.0645 113.754 31.0645C113.348 31.0645 113.025 31.2303 112.699 31.4791C112.377 31.8108 112.293 32.1395 112.293 32.5541C112.293 32.9688 112.454 33.2974 112.699 33.6291C113.022 33.8779 113.348 34.0438 113.754 34.0438C114.16 34.0438 114.483 33.8779 114.809 33.6291C115.051 33.2974 115.215 32.9688 115.215 32.5541Z" fill="#4D4D4D"/>
<path d="M14.6642 12.5338C14.3416 12.8655 14.2578 13.1942 14.2578 13.6088C14.2578 14.0235 14.4191 14.3521 14.6642 14.6838C14.9867 14.9326 15.3124 15.0985 15.7188 15.0985C16.1251 15.0985 16.4477 14.9326 16.7734 14.6838C17.0153 14.435 17.1797 14.0235 17.1797 13.6088C17.1797 13.1942 17.0184 12.7826 16.7734 12.5338C16.5315 12.2021 16.1251 12.1191 15.7188 12.1191C15.3124 12.1191 14.9092 12.285 14.6642 12.5338Z" fill="#4D4D4D"/>
<path d="M13.2071 13.6918C13.2071 13.2772 13.0458 12.8656 12.8007 12.6168C12.5588 12.2851 12.1525 12.2021 11.7461 12.2021C11.3398 12.2021 11.0172 12.368 10.6915 12.6168C10.3689 12.9485 10.2852 13.2772 10.2852 13.6918C10.2852 14.1065 10.4465 14.4351 10.6915 14.7668C11.0141 15.0156 11.3398 15.1815 11.7461 15.1815C12.1525 15.1815 12.475 15.0156 12.8007 14.7668C13.1233 14.4351 13.2071 14.1065 13.2071 13.6918Z" fill="#4D4D4D"/>
<path d="M100.711 12.5338C100.388 12.8655 100.305 13.1942 100.305 13.6088C100.305 14.0235 100.466 14.3521 100.711 14.6838C101.034 14.9326 101.359 15.0985 101.766 15.0985C102.172 15.0985 102.495 14.9326 102.82 14.6838C103.062 14.435 103.227 14.0235 103.227 13.6088C103.227 13.1942 103.065 12.7826 102.82 12.5338C102.578 12.2021 102.172 12.1191 101.766 12.1191C101.359 12.1191 100.956 12.285 100.711 12.5338Z" fill="#4D4D4D"/>
<path d="M99.254 13.6918C99.254 13.2772 99.0927 12.8656 98.8476 12.6168C98.6057 12.2851 98.1993 12.2021 97.793 12.2021C97.3867 12.2021 97.0641 12.368 96.7384 12.6168C96.4158 12.9485 96.332 13.2772 96.332 13.6918C96.332 14.1065 96.4933 14.4351 96.7384 14.7668C97.061 15.0156 97.3867 15.1815 97.793 15.1815C98.1993 15.1815 98.5219 15.0156 98.8476 14.7668C99.1702 14.4351 99.254 14.1065 99.254 13.6918Z" fill="#4D4D4D"/>
<path d="M141.063 31.4788C140.74 31.8105 140.656 32.1391 140.656 32.5538C140.656 32.9684 140.818 33.2971 141.063 33.6288C141.385 33.8776 141.711 34.0434 142.117 34.0434C142.524 34.0434 142.846 33.8776 143.172 33.6288C143.414 33.38 143.578 32.9684 143.578 32.5538C143.578 32.1391 143.417 31.7275 143.172 31.4788C142.93 31.147 142.524 31.0641 142.117 31.0641C141.711 30.9812 141.308 31.147 141.063 31.4788Z" fill="#4D4D4D"/>
<path d="M139.602 32.5541C139.602 32.1395 139.44 31.7279 139.195 31.4791C138.953 31.1474 138.547 31.0645 138.141 31.0645C137.734 31.0645 137.412 31.2303 137.086 31.4791C136.763 31.8108 136.68 32.1395 136.68 32.5541C136.68 32.9688 136.841 33.2974 137.086 33.6291C137.409 33.8779 137.734 34.0438 138.141 34.0438C138.547 34.0438 138.87 33.8779 139.195 33.6291C139.518 33.2974 139.602 32.9688 139.602 32.5541Z" fill="#4D4D4D"/>
<path d="M236.576 59C227.469 59 218.628 57.1878 210.291 53.6003L209.152 53.1212L209.221 51.8557C210.26 31.756 219.835 13.1951 235.506 0.853871L236.576 0L237.646 0.853871C253.316 13.1613 262.892 31.756 263.931 51.8557L263.999 53.1212L262.861 53.6003C254.523 57.1909 245.683 59 236.576 59ZM212.803 50.7623C220.338 53.8399 228.34 55.4125 236.542 55.4125C244.743 55.4125 252.745 53.8399 260.28 50.7623C259.008 32.6805 250.404 15.9625 236.542 4.54579C222.679 15.9625 214.075 32.6805 212.803 50.7623Z" fill="url(#paint0_linear_631_1893)"/>
<path d="M246.69 50.3135C246.792 50.2951 246.898 50.2767 247 50.2583C247.177 50.2245 247.354 50.1938 247.524 50.16C248.312 50.0125 249.094 49.8467 249.875 49.6624C251.721 49.2324 253.204 48.7993 254.236 48.4645C254.804 48.2894 255.366 48.1082 255.924 47.9239C254.15 33.3283 247.285 19.8936 236.572 10.0127C234.965 11.4839 233.457 13.0565 232.018 14.6967L232.787 15.4154L233.724 16.3737L234.661 17.2952L235.598 18.2535L236.5 19.2456L237.403 20.2039L238.274 21.2297L239.146 22.2556L239.984 23.2815L240.787 24.3411L241.59 25.4008L242.36 26.4605L243.129 27.5539L243.864 28.6811L244.599 29.8084L245.303 30.9356L246.007 32.0966L246.643 33.2576L247.279 34.4555L247.915 35.6165L248.486 36.8144L249.053 38.0461L249.59 39.2439L250.127 40.4756L250.629 41.7073L251.132 42.9389L251.6 44.2044L251.935 45.175L248.97 43.5471L248.858 43.2492L248.055 41.3018L247.183 39.3883L246.28 37.4748L245.309 35.595L244.27 33.7491L243.2 31.9369L242.062 30.1585L240.855 28.4139L239.618 26.7062L238.346 25.0322L237.006 23.3921L235.632 21.8195L234.227 20.2806L232.753 18.7756L231.246 17.3044L230.374 16.5181C228.935 18.2965 227.629 20.1086 226.388 22.0222L226.822 22.3631L228.497 23.8343L230.138 25.3732L231.745 26.912L233.318 28.4846L234.859 30.1247L236.333 31.7987L237.772 33.5064L239.177 35.251L240.517 37.0294L241.823 38.8416L242.933 40.451C242.515 40.2913 242.096 40.15 241.671 40.021L240.452 38.5682L238.811 36.6885L237.102 34.8425L235.362 33.0303L233.588 31.2857L231.779 29.578L229.937 27.9041L228.029 26.2639L226.087 24.6913L225.151 23.9726C224.214 25.5452 223.342 27.1853 222.573 28.8624L224.18 29.9558L226.221 31.427L228.094 32.8614L229.937 34.3327L231.745 35.8715L233.519 37.4441L235.259 39.0842L235.446 39.2716C234.462 39.3269 233.482 39.4651 232.508 39.6832L232.31 39.4927L230.601 37.9539L228.826 36.4489L227.018 34.9777L225.175 33.5771L223.302 32.2103L221.695 31.083C221.124 32.4161 220.625 33.7491 220.154 35.0821L220.222 35.1159L221.059 35.5275L221.931 35.9728L222.768 36.4182L223.606 36.8973L224.443 37.3765L225.281 37.8894L226.084 38.4024L226.888 38.9153L227.691 39.462L228.494 40.0087L229.264 40.5555L229.413 40.666C228.832 40.9087 228.262 41.1821 227.7 41.4861L227.257 41.2404L225.783 40.4203L224.276 39.634L222.768 38.8815L221.261 38.1628L219.719 37.4441L219.418 37.3058C218.984 38.7402 218.615 40.2115 218.28 41.6827L219.35 42.0943L220.991 42.7424L222.632 43.4273L223.73 43.9095L221.335 45.39L220.489 44.9999L219.418 44.5545L218.348 44.1092L217.812 43.9034C217.579 45.2333 217.343 46.5971 217.176 47.9608C217.176 47.9639 217.176 47.9669 217.176 47.97C219.825 48.9099 222.53 49.6286 225.281 50.1538C228.29 50.7589 231.885 51.2565 235.632 51.278C239.788 51.3026 243.551 50.8787 246.677 50.3258L246.69 50.3135Z" fill="url(#paint1_linear_631_1893)"/>
<path d="M234.521 44.8379C234.049 45.3723 233.506 45.8361 232.911 46.1893C232.557 46.4012 231.605 47.1046 231.202 46.7391C231.14 46.6838 231.115 46.5948 231.093 46.521C230.77 45.1819 231.332 44.0669 232.083 43.0257C232.535 42.4022 233.035 41.837 233.59 41.3118C233.671 41.2381 233.944 40.9371 234.055 40.9248C234.068 40.9248 234.049 40.9617 234.018 40.9985C233.993 41.0354 233.968 41.0722 233.962 41.0845C233.73 41.4838 232.095 44.3925 232.076 44.9177C232.052 45.4859 233.339 45.1235 233.683 44.8624C233.891 44.7058 233.878 44.4017 233.885 44.1284C233.897 43.6369 233.621 43.1946 234.061 42.8076C234.359 42.5527 234.964 42.31 235.318 42.5404C236.171 43.0963 234.908 44.3986 234.524 44.8409L234.521 44.8379Z" fill="white"/>
<path d="M237.15 44.8313C236.663 45.424 235.441 46.5513 234.824 47.2547C234.206 47.958 232.925 49.248 232.535 49.7088C232.15 50.1633 230.574 50.1326 230.574 50.1326C230.574 50.1326 231.861 49.0422 232.575 48.5078C233.295 47.958 234.594 46.3393 235.122 45.7588C235.64 45.1783 236.539 44.0327 236.8 43.704C237.057 43.3784 237.867 42.5 237.867 42.5C237.867 42.5 238.332 43.3784 237.147 44.8313H237.15Z" fill="white"/>
<path d="M240.223 42.1687C239.953 42.8229 238.942 41.9138 239.913 41.2411C240.89 40.5685 241.004 40.4302 240.967 40.8725L240.223 42.1687Z" fill="white"/>
<path d="M243.249 42.2574C243.255 42.3557 243.193 42.4509 243.097 42.4755C242.988 42.5001 242.864 42.5062 242.762 42.5554C242.591 42.623 242.641 42.6936 242.647 42.8871C242.653 43.268 242.628 43.6519 242.557 44.0266C242.52 44.2324 242.467 44.4382 242.349 44.601C242.098 44.9511 241.648 45.0187 241.353 45.3105C241.049 45.6084 240.755 45.9401 240.488 46.2688C240.311 46.4869 240.153 47.1841 240.097 47.4667C239.908 48.471 237.547 49.3372 236.387 49.3372C234.703 49.3433 235.978 48.342 236.242 48.1424C236.266 48.124 236.304 48.1117 236.338 48.1117L238.614 47.869C239.604 47.7708 239.914 46.4224 239.486 46.0569C239.058 45.6883 238.655 45.5716 238.602 44.8344C238.571 44.4904 239.089 43.1328 240.286 43.7625C240.956 44.1126 241.636 44.0604 241.636 44.0604L241.642 43.7932L241.539 42.623C240.77 42.7735 240.972 42.2298 241.059 41.9687C241.146 41.7077 241.431 41.7814 242.12 41.4712C242.737 41.1916 242.969 41.0596 243.103 41.0596L243.255 42.2636L243.249 42.2574Z" fill="white"/>
</g>
<defs>
<linearGradient id="paint0_linear_631_1893" x1="221.879" y1="66.6173" x2="262.564" y2="2.57264" gradientUnits="userSpaceOnUse">
<stop offset="0.06" stop-color="#D75DFF"/>
<stop offset="0.53" stop-color="#00D7FF"/>
<stop offset="0.56" stop-color="#00DAF9"/>
<stop offset="1" stop-color="#00FFB0"/>
</linearGradient>
<linearGradient id="paint1_linear_631_1893" x1="235.957" y1="63.5148" x2="238.534" y2="-4.57568" gradientUnits="userSpaceOnUse">
<stop stop-color="#D75DFF"/>
<stop offset="0.06" stop-color="#CA64FF"/>
<stop offset="0.16" stop-color="#A877FF"/>
<stop offset="0.31" stop-color="#7196FF"/>
<stop offset="0.48" stop-color="#25C1FF"/>
<stop offset="0.56" stop-color="#00D7FF"/>
<stop offset="0.64" stop-color="#00E3E6"/>
<stop offset="0.76" stop-color="#00F2C8"/>
<stop offset="0.86" stop-color="#00FBB6"/>
<stop offset="0.94" stop-color="#00FFB0"/>
</linearGradient>
<clipPath id="clip0_631_1893">
<rect width="264" height="59" fill="white"/>
</clipPath>
</defs>
</svg>
